<?xml version="1.0" encoding="utf-8"?>
<!-- Generator: Adobe Illustrator 18.0.0, SVG Export Plug-In . SVG Version: 6.00 Build 0)  -->
<!DOCTYPE svg PUBLIC "-//W3C//DTD SVG 1.1//EN" "http://www.w3.org/Graphics/SVG/1.1/DTD/svg11.dtd">
<svg version="1.1" xmlns="http://www.w3.org/2000/svg" xmlns:xlink="http://www.w3.org/1999/xlink" x="0px" y="0px"
	 viewBox="0 0 313.2 202.5" enable-background="new 0 0 313.2 202.5" xml:space="preserve">
<g id="Old">
	<g>
		<ellipse fill="none" cx="-124.4" cy="135.6" rx="6.6" ry="6.7"/>
		<ellipse fill="none" cx="-176.3" cy="128.9" rx="5.9" ry="5.6"/>
		<circle fill="none" cx="-107.5" cy="201.1" r="5.6"/>
		<circle fill="none" cx="-83.7" cy="161.4" r="5.8"/>
		<circle fill="none" cx="-57.9" cy="129.4" r="6.2"/>
		<circle fill="none" cx="-107.5" cy="62.9" r="5.6"/>
		<ellipse fill="none" cx="-150.5" cy="40.3" rx="5.3" ry="4.5"/>
		<circle fill="none" cx="-139.7" cy="88.3" r="3.2"/>
		<circle fill="none" cx="-69.6" cy="88.6" r="3.5"/>
		<path fill="#EDB88B" d="M-141.1,82.1h-16.5c-5.5,0-6,4.5-6,9.9c0,5.5,4.5,9.9,9.9,9.9h13.1c5.5,0,9.5-4.5,9.5-10v-4.9
			C-131,81.6-135.6,82.1-141.1,82.1z M-136.5,88.3c0,1.8-1.4,3.2-3.2,3.2c-1.8,0-3.2-1.4-3.2-3.2s1.4-3.2,3.2-3.2
			C-138,85.1-136.5,86.6-136.5,88.3z"/>
		<path fill="#EDB88B" d="M-34.5,106.9c0-2.1,0.3-4.2,0.7-6.2c-8.9-1.4-16.7-5.3-22.5-10.9c0,0.7,0.1,1.3,0.1,2
			c0,8.2-7.4,14.9-15.6,14.9h-16.1c-8.2,0-14.6-6.7-14.6-14.9c0-0.6,0-1.3,0-1.9h-21.6c0,0.6,0.1,1.3,0.1,1.9
			c0,8.2-7.4,14.9-15.6,14.9h-16.1c-8.2,0-14.6-6.7-14.6-14.9c0-2.2,0.1-4.2,0.3-6.1l-19.8-20.7c-9.1,14.6-14.3,31.7-14.3,50.1
			c0,52.5,42.5,95,95,95c46.2,0,84.7-33,93.2-76.7C-26.8,129-34.5,118.8-34.5,106.9z M-176.3,134.5c-3.3,0-5.9-2.5-5.9-5.6
			c0-3.1,2.6-5.6,5.9-5.6c3.3,0,5.9,2.5,5.9,5.6C-170.4,132-173,134.5-176.3,134.5z M-153.7,177.1c-3.6,0-6.4-2.9-6.4-6.4
			c0-3.5,2.9-6.4,6.4-6.4c3.6,0,6.4,2.9,6.4,6.4C-147.2,174.3-150.1,177.1-153.7,177.1z M-124.4,142.4c-3.6,0-6.6-3-6.6-6.7
			s3-6.7,6.6-6.7s6.6,3,6.6,6.7S-120.7,142.4-124.4,142.4z M-107.5,206.7c-3.1,0-5.6-2.5-5.6-5.6s2.5-5.6,5.6-5.6
			c3.1,0,5.6,2.5,5.6,5.6S-104.4,206.7-107.5,206.7z M-83.7,167.2c-3.2,0-5.8-2.6-5.8-5.8s2.6-5.8,5.8-5.8c3.2,0,5.8,2.6,5.8,5.8
			S-80.5,167.2-83.7,167.2z M-57.9,135.6c-3.4,0-6.2-2.8-6.2-6.2c0-3.4,2.8-6.2,6.2-6.2c3.4,0,6.2,2.8,6.2,6.2
			C-51.7,132.9-54.5,135.6-57.9,135.6z"/>
		<path fill="#EDB88B" d="M-161.1,77.1h26.4c5.3,0,8.1,2.8,9.5,6.9l23.1,1.1c0.8-4.8,3.1-8.1,8.8-8.1h26.4c0.8,0,1.5,0.1,2.2,0.2
			c-1.2-3.3-1.9-6.9-1.9-10.5c0-4.3,0.9-8.4,2.6-12.2c-12-1.7-21.3-11.9-21.3-24.3c0-2.3,0.3-4.5,0.9-6.6
			c-7.9-2.1-16.2-3.3-24.7-3.3c-31.6,0-59.6,15.5-76.9,39.2l18.2,20.4C-166.4,78.1-164.3,77.1-161.1,77.1z M-107.5,57.3
			c3.1,0,5.6,2.5,5.6,5.6c0,3.1-2.5,5.6-5.6,5.6c-3.1,0-5.6-2.5-5.6-5.6C-113.1,59.8-110.6,57.3-107.5,57.3z M-150.5,35.8
			c2.9,0,5.3,2,5.3,4.5c0,2.5-2.4,4.5-5.3,4.5c-2.9,0-5.3-2-5.3-4.5C-155.7,37.8-153.4,35.8-150.5,35.8z"/>
		<path fill="#EDB88B" d="M-73.3,82.1h-16.5c-5.5,0-6,4.5-6,9.9v0c0,5.5,4.5,9.9,9.9,9.9h13.1c5.5,0,9.5-4.5,9.5-10V87
			C-63.1,81.6-67.8,82.1-73.3,82.1z M-69.6,92.1c-1.9,0-3.5-1.6-3.5-3.5c0-1.9,1.6-3.5,3.5-3.5s3.5,1.6,3.5,3.5
			C-66.1,90.5-67.6,92.1-69.6,92.1z"/>
	</g>
	<g id="Chocolate">
		<ellipse fill="#635255" cx="-150.5" cy="40.3" rx="6.4" ry="5.3"/>
		<ellipse fill="#635255" cx="-107.5" cy="62.9" rx="6.4" ry="6.6"/>
		<ellipse fill="#635255" cx="-176.3" cy="128.9" rx="6.4" ry="6.6"/>
		<ellipse fill="#635255" cx="-153.6" cy="170.8" rx="6.7" ry="7.1"/>
		<ellipse fill="#635255" cx="-107.5" cy="201.1" rx="5.9" ry="5.9"/>
		<ellipse fill="#635255" cx="-83.7" cy="161.4" rx="5.9" ry="5.9"/>
		<ellipse fill="#635255" cx="-124.4" cy="135.6" rx="6.9" ry="6.9"/>
		<ellipse fill="#635255" cx="-69.5" cy="88.6" rx="3.5" ry="3.5"/>
		<ellipse fill="#635255" cx="-139.7" cy="88.5" rx="3.4" ry="3.4"/>
		<ellipse fill="#635255" cx="-57.9" cy="129.4" rx="6.9" ry="6.9"/>
	</g>
</g>
<g id="Layer_1">
	<g>
		<path fill="#EDB88B" d="M183.5,88.4c0-4.8,1.3-9.4,3.5-13.4c-1,0.1-2.1,0.1-3.1,0.1c-19.3,0-34.9-15-34.9-33.6
			c0-2.5,0.3-4.9,0.8-7.3c-2.9,1.1-6.1,1.7-9.4,1.7c-14.3,0-26-11.6-26-25.8c0-2.2,0.3-4.4,0.8-6.5c-4-0.5-8-0.7-12.1-0.7
			C67.3,3,36,22,18.6,50.5l23.6,20.2l-4.5,5.2L12.4,62.5C7.1,74.6,4.2,87.9,4.2,102c0,54.6,44.3,99,99,99c50.2,0,91.7-37.4,98.1-86
			C190.7,110,183.5,100,183.5,88.4z"/>
		<path fill="#FFFFFF" d="M42.2,70.6L18.6,50.5c-2.3,3.8-4.4,7.8-6.2,12l25.3,13.4L42.2,70.6z"/>
	</g>
	<g id="Chocolate_1_">
		<ellipse fill="#635255" cx="61.6" cy="31.1" rx="6.4" ry="5.3"/>
		<ellipse fill="#635255" cx="104.6" cy="53.7" rx="6.4" ry="6.6"/>
		<ellipse fill="#635255" cx="35.8" cy="119.7" rx="6.4" ry="6.6"/>
		<ellipse fill="#635255" cx="48.9" cy="149.5" rx="6.7" ry="7.1"/>
		<ellipse fill="#635255" cx="95.4" cy="183.9" rx="5.9" ry="5.9"/>
		<ellipse fill="#635255" cx="142.5" cy="152.2" rx="5.9" ry="5.9"/>
		<ellipse fill="#635255" cx="142.5" cy="79.4" rx="3.5" ry="3.5"/>
		<ellipse fill="#635255" cx="72.4" cy="79.3" rx="3.4" ry="3.4"/>
		<ellipse fill="#635255" cx="154.2" cy="120.2" rx="6.9" ry="6.9"/>
	</g>
	<g id="Glasses">
		<g>
			<path fill="#FFFFFF" d="M74.6,67H47.8c-7.5,0-13.5,6.1-13.5,13.5v9.6c0,7.5,9.8,13.5,17.3,13.5h18.6c7.5,0,18-6.1,18-13.5v-9.6
				C88.1,73.1,82,67,74.6,67z M67.9,99.6l-10.7,0.3c-9.5,0-17.3-7.2-17.3-16v-0.6c0-6.9,6.1-12.6,13.5-12.6H69
				c7.5,0,13.5,5.6,13.5,12.6C82.5,92.4,77.7,99.6,67.9,99.6z"/>
		</g>
		<g>
			<path fill="#FFFFFF" d="M147.6,67h-26.7c-7.5,0-13.5,6.1-13.5,13.5v9.6c0,7.5,9.8,13.5,17.3,13.5h18.6c7.5,0,18-6.1,18-13.5v-9.6
				C161.2,73.1,155.1,67,147.6,67z M140.9,99.6l-10.7,0.3c-9.5,0-17.3-7.2-17.3-16v-0.6c0-6.9,6.1-12.6,13.5-12.6H142
				c7.5,0,13.5,5.6,13.5,12.6C155.6,92.4,150.8,99.6,140.9,99.6z"/>
		</g>
		<polygon fill="#FFFFFF" points="111.6,82.9 83.8,82.9 83.8,73.5 92.6,75.2 103.3,75 111.6,73.5 		"/>
	</g>
	<g>
		<path fill="#635255" d="M303.2,192.3c-6.6,0-12-2.1-12-4.8c0-0.2,0-0.4,0.1-0.5c-1.7,0.3-3.5,0.5-5.5,0.5c-4.9,0-9.1-1.2-11-2.9
			c-2.1,0.7-4.9,1.2-7.9,1.2c-6.6,0-12-2.1-12-4.8c-28.6,0-51.8,3.9-51.8,8.8c0,4.8,23.2,8.8,51.8,8.8c23.7,0,43.6-2.7,49.8-6.4
			C304.2,192.3,303.7,192.3,303.2,192.3z"/>
	</g>
</g>
</svg>
